<svg version="1" xmlns="http://www.w3.org/2000/svg" width="489.333" height="489.333" viewBox="0 0 367.000000 367.000000"><path d="M161.9 4.5c-1.2 1.1-17 2.4-19.2 1.6-2.5-1-7.7.7-10.3 3.4-.9.8-2.8 1.5-4.3 1.5s-4.2 1.1-6.1 2.5c-2.1 1.6-4.7 2.5-6.9 2.5-2 0-5.8 1.1-8.6 2.5-2.7 1.3-5.6 2.5-6.2 2.5-4 .1-19.3 13.5-19.3 16.9 0 .6-3.6 4.8-8.1 9.3-6.4 6.5-8.9 9.9-12.4 17.2-4.9 10.2-8.6 22.8-10.4 35.6-1.9 12.9-2.1 14-3.7 14-2 0-2.7 4.2-2 11 .4 3.3.2 8.6-.3 11.7-1.8 10-1.6 16.4.7 22.3 3.6 9.6 3.6 9.7.4 10.3-1.6.3-3.2 1.3-3.5 2.1-.5 1.2-.2 1.2 2 .1 3.7-2 8.8.6 11 5.7.6 1.4 2.5 3.4 4.2 4.4 1.7 1 3.1 2.2 3.1 2.6 0 .4.6.8 1.4.8 2.2 0 4.4 3.8 6.7 11.3 2.4 8.1 7.1 13.8 12.6 15.5 2.1.6 8.2 1.7 13.6 2.4 17.3 2.2 40.3-1.9 46.7-8.4 1.6-1.5 3.7-5.2 4.8-8.1 1.1-2.8 2.4-5.2 3-5.2 1.8 0 2.5-1.3 1.7-3.2-1.8-4 .9-11.7 4.5-12.8 4.9-1.6 16.7-.4 12.2 1.2-.8.3.1 1.2 2 2.2 2.5 1.2 3.8 2.9 5.5 7.2 1.2 3.1 2.4 7.1 2.5 8.9.1 1.8.9 3.5 1.8 3.8 2.2.8 4 3.5 3.5 5-.3.8 0 1.2.7 1 .6-.2 2.5.8 4.2 2.4 1.6 1.5 5.3 3.8 8.1 5.2 4.8 2.2 7.2 2.7 24.5 4.2 12.6 1.1 16.8 1.8 22 3.7 7.1 2.6 10 4.5 9.4 6.2-.3.7 0 1.6.7 2.1.9.5 1 .2.6-.9-.8-2.2 1.2-2.1 4.1.1 2.7 2.1 3.1 4.7 1.3 9-1.5 3.6-2.7 4.1-3.4 1.5-.4-1.7-.5-1.7-.6-.1 0 1-.5 1.8-1.1 1.8-.5 0-1 .5-1 1.1 0 .8.5.8 1.5-.1 1-.8 1.5-.9 1.5-.1 0 .6-1.1 1.3-2.4 1.7-1.4.3-2.6 1.2-2.8 2-.2.9-.8 1.1-1.8.4-1.1-.7-1.2-1.2-.3-2.1 1.3-1.3.7-3.9-.9-3.9-.6 0-.8.6-.5 1.4.3.8-.1 2-.9 2.7-1.2 1-1.3.9-.8-.7.5-1.4 0-1.1-1.9.9-1.6 1.6-3.2 2.5-3.9 2.1-.7-.5-.9 0-.6 1.4.4 1.5 0 2.2-1.4 2.6-1.7.4-1.9 1-1.3 3.3.3 1.5 1.1 2.9 1.6 3.1.5.2.9 1.2.9 2.2 0 1 .6 1.8 1.3 1.7 4.4-.1 6.8.4 6.4 1.5-.2.7-1 1.2-1.6 1-.9-.2-.9.3-.1 1.7.6 1.1 1 2.4.9 2.8-.4 2.2.3 3.3 2.1 3.3 1.1 0 2-.7 2-1.5s.5-1.5 1.1-1.5c.5 0 .7.5.3 1.2-.4.7-.3.8.4.4s1.2-.2 1.2.3c0 .6-.4 1.1-1 1.1-.5 0-1.2 1.1-1.6 2.5-.3 1.4-1 2.5-1.4 2.5-.4 0-1.1.7-1.4 1.6-.3.8-.2 1.2.4.9 1.9-1.2 1 5.4-1.4 9.9-1.3 2.5-2.6 4.3-2.8 4.1-.2-.3-1.1 1.1-1.8 3-.8 1.9-2.2 3.7-3.2 4.1-1 .3-1.8 1-1.8 1.6 0 .5-.6.8-1.3.5-.8-.3-1.4 0-1.5.6-.1 1.2-.9 4.8-1.2 5.7-.1.3-.2.8-.1 1.2 0 .4-1 .7-2.3.6-1.6-.2-2.2-.7-1.8-1.6.9-2.4-2.2-.8-3.5 1.8l-1.2 2.4-.6-2.7c-.4-1.5-1.1-2.5-1.5-2.2-.4.3-1-.2-1.4-1-1.2-3.1-2.6-1.3-2.6 3.2-.1 4.2-.2 4.6-1.4 3-1.8-2.4-2.4-2.1-1.8.8.3 1.8 0 2.5-.8 2.3-.8-.2-1.6 1.1-2.1 3-.5 2.6-.4 3.2.7 2.8.8-.3 1.4-.1 1.4.4s.7.7 1.5.4c.9-.4 1.5 0 1.5 1 0 .9-.5 1.5-1.1 1.4-.6-.2-1.5.7-1.9 1.9-.7 1.7-.6 2.1.6 1.6.8-.3 1.4.1 1.4 1.1 0 .9-.7 1.6-1.5 1.6s-1.7 1.1-2.1 2.5c-.6 2.6-2.8 3.3-4 1.3-.4-.6-.3-.8.4-.4 1.1.7 2.8-5.1 1.8-6.1-.3-.4-.6.4-.6 1.6 0 1.2-.7 2.4-1.5 2.7-.8.4-1.5 1.2-1.5 1.9s-1.2 1.2-3 1.1c-1.6-.1-3-.4-3-.9 0-.4-.4-.7-1-.7-.5 0-1 .9-1 2 0 1.2-.7 2-1.6 2-1 0-1.4-.5-1-1.6.3-.8.2-1.3-.3-.9-.5.3-1.2-.1-1.4-.7-.4-1-.7-1-1.5 0-.5.7-1.3 1.2-1.8 1.1-1.9-.3-3.4.1-3.4 1.2 0 .5.5.7 1 .4.6-.3 1 .5 1 1.9 0 2.2-.4 2.4-3.5 2.1-1.9-.2-3.5.1-3.5.6s-1.1.9-2.4.9c-1.3 0-2.7.8-3 1.7-.6 1.4-.9 1.5-1.5.4-.6-.9-1.1-1-1.5-.2-.4.6-1.2.9-1.7.6-.5-.4-.9-.1-.9.5s-.9 2-2 3.2c-1.7 1.8-2 1.9-2.6.5-.7-2-4.5-1.8-4.1.3.2 1.7-5.4 2.1-11.1.7-2.5-.6-3.8-.5-5 .6-1.6 1.4-4.5 2.2-10.5 3.2-1.9.3-3 0-3.4-1.1-.4-1.1-.8-1.2-1.3-.4-.5.8-1.2.7-2.4-.5-1.4-1.4-1.6-1.4-1.6-.1 0 2.9-4.6.1-6.9-4.1-.6-1.3-1.7-2-2.5-1.7-.9.3-1.8-.6-2.5-2.6-.8-2.5-1.4-3-3.1-2.5-1.5.5-2 .2-2-1.3 0-1-1.1-2.4-2.5-3-1.4-.6-2.5-1.6-2.5-2.2 0-.6-.9-.6-2.4 0-1.8.7-2.6.5-3-.5-.7-1.8 1-3 1.8-1.3.3.7.3.2 0-1.2-.4-1.4-1.2-2.8-1.8-3.2-.8-.6-.8-.8.1-.8.6 0 1.4-.9 1.7-2 .3-1.1.9-2.9 1.2-4 .4-1.6.1-2-1.9-2-3.2 0-5.7-2.7-3.4-3.6 2.4-.9 3.1-4.2 1.3-5.9-2-2-2.1-2-2.3 1.8-.1 2.9-3.3 10.6-3.3 8.1 0-1.3-4.7-.6-5.6.8-.3.5-1.1.5-1.9-.2-.7-.6-1.6-.7-1.9-.2-.7 1.2 12.4 13.8 18.9 18.2 2.8 1.8 8.3 6.2 12.4 9.7 7.2 6.3 11.3 8.7 13.5 8 .6-.2 1.8.6 2.7 1.7 1.2 1.4 3.4 2.2 8 2.7 3.5.4 10.5 1.5 15.5 2.4 16.8 3 41.7 1.4 55.9-3.7 1.7-.5 7.7-2.7 13.5-4.7 14.8-5.2 22.5-9.5 30-17.1 11.1-11.2 15.8-17.5 19.9-26.6 3.9-8.8 10.8-29.9 11.8-36.1.4-2.3 1.5-3.8 4-5.3 1.9-1.1 4-2 4.7-2 2.8 0 10.7-13.1 12.1-20 .4-1.9 1.9-7.6 3.5-12.5 1.5-5 3.3-11.5 4-14.5.7-3 2.8-11.1 4.8-18 2.9-10.3 3.6-14.7 4-24.9l.5-12.4-2.4.6c-1.4.4-4.3.1-6.6-.6-3.3-1-4-1.6-3.3-2.7.6-.9.5-1.7-.2-2.1-.7-.4-.7-2.1-.1-5 1.6-7.7.6-16.8-3.7-33.4-2.3-8.8-4.6-17.6-5-19.5-.6-3-4.3-15.7-5.8-20-.8-2.1-.9-2.8-1.1-4.3-.1-.6-1.4-2.6-2.9-4.4-1.5-1.7-3.5-4.5-4.4-6.2-1.6-2.9-5.1-5.1-8.8-5.6-3.8-.5-5.6-1.7-6.9-4.7-3.3-7.7-5.4-11.9-6.2-12.3-.4-.3-.6-1.1-.4-1.8.2-.7-3.2-3.9-7.6-7.2-4.4-3.3-9.8-7.5-12.1-9.3-2.3-1.8-5.5-4-7.2-4.9-1.7-.8-4.4-2.5-6.1-3.8-1.6-1.2-5.9-3.5-9.4-5-5.8-2.6-6.4-2.7-7.3-1.2-.5.9-1.4 1.7-1.9 1.7-.6 0-.3-.7.6-1.7 2.2-2.1.9-2.8-6.7-3.7-3.2-.4-6-1.2-6.3-1.7-.7-1.1-19.6-1.2-19.2-.2.1.5-.2.8-.8.8-.5 0-.9-.3-.7-.8.1-.4-.6-.8-1.5-.9-1 0-2.9-.3-4.3-.5-5.6-.9-14.6-1.4-15.1-.8zm30.6 5.7c.6.6 0 .8-1.9.6-1.6-.2-3.1-.9-3.4-1.7-.3-1 .2-1.1 1.9-.6 1.3.4 2.9 1.2 3.4 1.7zm2.4 3.8c4.7 1 8.8 1.6 9 1.4.8-.7-.7-1.5-3.5-1.8-1.6-.2-3.3-.4-3.9-.5-.6-.1-.6-.4 0-1s3.9-.3 8.2.7c5.8 1.3 7.3 2.1 7.5 3.7.2 1.2 2 2.8 4.6 4.1 2.4 1.2 5.7 3.4 7.3 5 1.6 1.5 2.9 2.4 2.9 1.9 0-.4-.8-1.4-1.7-2.1-1.6-1.2-1.6-1.5-.3-2.3 1.1-.7 1.6-.6 2 .4.3.8 2.9 3.5 5.9 6 5.3 4.5 7.4 7.4 8.4 11.2.3 1.3.5 1.1.6-.7.1-2.3.2-2.3 1.2-.6.9 1.5 1.3 1.6 2 .5s.9-1 .9.4c0 2.2 17.7 20 19 19.2.6-.3 1.1.1 1.1.9.3 3.6.6 4.1 1.8 3.8.9-.2 1.1.3.7 1.3-.3.9.3 2.5 1.4 3.7 2 2.2 2.7 4.4 1.1 3.3-.5-.3-1.2-.1-1.6.4-.3.6.8 1.7 2.5 2.6 1.6.8 3 2 3 2.6 0 .6 1.1 2.5 2.5 4.3 2.6 3.4 3.4 5.9 1.3 3.8-.7-.7-1.5-1.2-1.9-1.2-1.4 0-.6 7.5 1 9.4 1.5 1.8 1.5 1.8-.6.5-1.2-.7-2.3-2.2-2.5-3.3-.2-1.1-.8-2.1-1.3-2.3-1.3-.4-1.2 3.7 0 5.8 1.3 2 1.4 8.3.2 9.1-1.5.9-3.7-.2-3.7-2 0-1.3-.2-1.4-1.2-.3-1.1 1-.9 1.6.7 2.9 2.4 1.9 3.9 5.2 2.5 5.2-.5 0-.7.6-.4 1.3.3.9-.6 1.3-3 1.3-4.2 0-4.7.4-4 3.1.4 1.3 1.2 1.9 1.9 1.7 1-.4 1.2.1.9 1.8-.4 1.8-.2 1.6 1-.7 1.2-2.5 1.5-2.7 1.6-1 .2 1.7.3 1.6 1-.5.7-2.3.8-2.3.9-.3.1 1.2-.3 2.5-.9 2.8-.5.3-1 1.1-1 1.6 0 .6.5.7 1 .4.6-.3 1 .1 1 1 0 1.1-.5 1.5-1.4 1.2-1.7-.7-3.2 4.5-2 6.5.6 1.1.5 1.1-.8 0-1.3-1-1.7-1-2.2.4-1 2.6-.7 3.6.9 3 1.7-.6 1.5 1.3-1.1 9.2-.8 2.3-1.4 5-1.5 6 0 1-.3 1.2-.6.4-.2-.6-1.3-1.2-2.4-1.2-1 0-1.9-.4-1.9-1 0-.5-.7-.7-1.5-.4-.8.3-2.4-.1-3.6-1-1.4-.9-3.3-1.3-5-.9-2.2.4-2.9.2-2.9-1 0-.8-.7-1.8-1.6-2.1-1-.4-1.3-.2-.8.7.4.6-.2.4-1.3-.5-1.1-1-2.4-1.8-2.9-1.8s-.2.5.6 1c1 .7 1.1 1 .2 1-.7 0-2-.9-2.9-1.9-.9-1.1-2-1.8-2.5-1.5-.4.3-1.3.2-2-.2-.6-.4-3-.7-5.2-.7-2.3 0-4.7-.3-5.5-.7-2.1-1.1-9.7 3-7.9 4.2.9.6.6.7-.8.3-1.4-.3-2.8.1-4 1.2-1.7 1.7-1.8 1.7-1.1-.1.6-1.6.4-1.7-1.8-1.2-1.5.4-2.5.2-2.5-.4 0-.6-1-.4-2.3.5-1.3.8-2.7 1.2-3.2.8-.4-.5-.5-.2-.1.4.4.7.3 1.3-.3 1.3-1.2 0-5.5 6.9-4.7 7.7.3.3-.2 1.2-1.2 1.9-.9.7-1.9.8-2.2.4-.9-1.4-8.7 5.2-10.4 8.7-2 4.2-4.4 4.8-18.9 4.8H149l-3.4-3.6c-3.4-3.8-11.5-9.5-12.8-9.1-.5.1-.8-.3-.8-.8 0-.6-.7-1-1.5-1s-1.5-.8-1.5-1.7c0-1.3.3-1.4 1.2-.5 1.7 1.7 2.3 1.5 3.6-1.2.9-2 .7-2.7-.7-4-1-.9-2.2-1.6-2.8-1.6-.6 0-1.6-.7-2.3-1.5-.7-.9-1.5-1.3-1.8-1-.3.3-1.1 0-1.9-.6-1-.9-1.3-.8-1.3.1s-1.1 1-3.7.6c-2.1-.3-4.5-.6-5.3-.5-.8 0-3.2.1-5.2.1-2.1.1-3.8.5-3.8 1s.5.6 1 .3c1.2-.8 1.3.5.1 2.4-.6 1-1.3 1-2.9.2-1.7-.9-1.9-.8-1.5.7.4 1.7 2.2 2.8 8.7 5.2 2.3.9 2.7.8 2.3-.4-.3-.8 0-1.7.8-1.9 1.7-.7 2.5.1 2.5 2.6 0 1.1-.3 1.7-.7 1.4-.3-.4-1.2-.2-2 .4-1.1.9-.4 1.6 3.4 3.5 2.7 1.3 5.6 2.4 6.6 2.4.9 0 3.4.9 5.4 2 4.5 2.4 1.9 2.7-4.2.5-4.6-1.7-17.1-2-21-.5-1.5.6-7 1.5-12.3 2-5.3.6-13.1 1.9-17.2 2.9s-9.1 2.2-11 2.5l-3.6.6.1-5.6c.1-3-.4-6.3-1-7.1-.8-1.1-.9-2.9-.4-5.2.6-2.5.4-3.8-.6-4.5-1.1-.9-1.2-2.5-.3-9.4.8-5.6.8-8.6.1-9.3-1.2-1.2.4-12.7 2-14.8 1-1.2.9-1.4-.6-.8-.9.3-1.7.2-1.7-.3 0-.6.4-1 .9-1 .8 0 1.9-3.8 2.4-9 .2-1.4-.3-3.2-1-4.1-1.3-1.6-.3-7.6 1.5-8.8.4-.3 1.9-2.4 3.2-4.6l2.5-4 .6 3 .7 3 .1-3.4c.1-2.7 1.1-4.4 4.6-7.7 2.5-2.3 5.7-5.9 7.1-8 1.5-2.2 3.3-4.3 4-4.7.8-.4 1.4-1.4 1.4-2.1 0-.7.9-2.1 2-3.1s2-2.3 2-3c0-.6 1.3-2.4 2.9-3.9 1.6-1.6 2.7-3.5 2.4-4.2-.3-.8 0-1.4.6-1.4s2.6-1.5 4.4-3.4c1.9-1.9 4.9-4.2 6.8-5.3 1.9-1 3.4-2.1 3.4-2.6 0-.8 9.3-5.6 11-5.7.6 0 2.1-1 3.5-2.3 1.4-1.3 3.1-2.2 3.7-2 .6.2 1.4-.1 1.8-.6.3-.6 1.2-1.1 1.9-1.1.8 0 3.5-1 6.2-2.2 2.7-1.3 5.4-2.3 5.9-2.4.6 0 1.7-.4 2.5-.7 5-1.9 14.1-3.6 26-5 4.7-.5 14.3.5 22.9 2.3zm30.4 4.8c.5.7.7 1.5.3 1.9-.3.3-.6.1-.6-.5s-.9-1.4-2-1.7c-1.1-.3-2-1.1-2-1.6 0-.6.5-.7 1-.4.6.3 1.1-.2 1.1-1.2.1-1.5.2-1.5.6.2.3 1.1 1 2.6 1.6 3.3zm-5-.2c2.1 1.4 3.6 2.8 3.3 3.1-.6.6-8.6-4.3-8.6-5.2 0-1.1 1.7-.4 5.3 2.1zm16.2 8.4c.3.5.1 1-.4 1-.6 0-1.1-.5-1.1-1 0-.6.2-1 .4-1 .3 0 .8.4 1.1 1zm-147 11c-.3.5-1.3 1-2.1 1s-1.2-.5-.9-1c.3-.6 1.3-1 2.1-1s1.2.4.9 1zm2 9c-2.5 1.1-5.5 1.2-5.5.2 0-.4 1.7-.8 3.8-.9 2.8-.1 3.2 0 1.7.7zM84 48.2c0 .5-.4.7-.9.3-.5-.3-1.2-.1-1.6.5-.3.5-2.1 1-3.8 1-3-.1-3.1-.2-1.4-1.5 2.1-1.5 7.7-1.7 7.7-.3zm-7 17.4c0 .9-13.1 13.6-13.6 13.2-.7-.8 5.5-8.7 7.8-9.9 1.3-.7 2.7-1.8 3.1-2.5.8-1.4 2.7-1.9 2.7-.8zm195.8 1.2c.2.7-.2 1-1.2.6-.9-.3-1.6-1.1-1.6-1.6 0-1.3 2.3-.5 2.8 1zm7.2 8.6c0 .6-.7.2-1.5-.8-.8-1.1-1.5-2.5-1.5-3 0-.6.7-.2 1.5.8.8 1.1 1.5 2.5 1.5 3zm5.1 18.1c.8 1.6.6 1.5-1-.4-1.2-1.3-2.1-2.8-2.1-3.5 0-1.2 1.4.5 3.1 3.9zm-7.1 13.6c0 .5-.4.9-1 .9-.5 0-1-.7-1-1.6 0-.8.5-1.2 1-.9.6.3 1 1 1 1.6zm-59.5 32.8c-.3.6-1.1 1.1-1.7 1.1-.6 0-.6-.6.2-1.5 1.4-1.7 2.6-1.3 1.5.4zM269 141c0 .5-.2 1-.4 1-.3 0-.8-.5-1.1-1-.3-.6-.1-1 .4-1 .6 0 1.1.4 1.1 1zm-48 .4c0 .3-.4.8-1 1.1-.5.3-1 .1-1-.4 0-.6.5-1.1 1-1.1.6 0 1 .2 1 .4zm5.5.5c.9 1.6-.9 2-2.3.5-1-1.2-1-1.4.2-1.4.8 0 1.7.4 2.1.9zM125 145c0 .5-.2 1-.4 1-.3 0-.8-.5-1.1-1-.3-.6-.1-1 .4-1 .6 0 1.1.4 1.1 1zm76 .5c-.7.8-1.7 1.5-2.3 1.5-.6 0-.2-.7.9-1.5 2.5-1.9 3-1.9 1.4 0zm-76.4 3.2c-.7.7-4.6-1.6-4.6-2.8 0-.5 1.1-.2 2.5.7 1.4.9 2.4 1.9 2.1 2.1zm2.9 2.4c1.1 1.7-.1 2.1-1.5.4-.8-.9-.8-1.5-.2-1.5.6 0 1.4.5 1.7 1.1zm73-.1c-.3.5-1.7 1-3.1 1-1.3 0-2.4-.5-2.4-1 0-.6 1.4-1 3.1-1 1.7 0 2.8.4 2.4 1zm-145.8 4.2c-.3.8-.6.5-.6-.6-.1-1.1.2-1.7.5-1.3.3.3.4 1.2.1 1.9zm167 2.4c-.3.3-1.2.4-1.9.1-.8-.3-.5-.6.6-.6 1.1-.1 1.7.2 1.3.5zM273 161c0 .5-.9 1-2 1s-2-.5-2-1c0-.6.9-1 2-1s2 .4 2 1zm-154.6 1c-.6.6-2.1.6-3.9.1-3-.9-3-.9 1-1 2.5-.1 3.6.2 2.9.9zm111.2 3.1c3.9 2.4 6.6 5.3 4 4.3-.9-.3-1.6-.1-1.6.5 0 1.9-2.5 1.2-3.5-1.1-1.1-2.3-3.8-3.9-3-1.6.4 1-1.5 1.3-8.9 1.3-8.2 0-9.8.3-12.5 2.2-1.6 1.3-3.5 2.3-4.1 2.3-1.7 0-1.1-1.8.9-2.5 1.1-.3 2.2-1.3 2.6-2.2.5-1.4.3-1.4-1.5.2-1.1 1-2.3 1.6-2.6 1.2-.9-.8 5.4-5.1 8.1-5.4 1.4-.2 3.5-.8 4.8-1.3 3.2-1.4 13.7-.2 17.3 2.1zm9.7-1c1.2 1.2 1.5 1.9.7 1.5-.8-.3-2.3-.9-3.2-1.2-1-.4-1.8-1-1.8-1.5 0-1.6 2-1 4.3 1.2zM136 164c0 .5-.7.7-1.5.4-.8-.4-1.5-.8-1.5-1 0-.2.7-.4 1.5-.4s1.5.4 1.5 1zm-9.4 1.6c3.7.5 5.3 2.1 6 5.8.4 2.1 0 2.6-1.6 2.6-1.2 0-3.5-.8-5.3-1.7-3.9-2-15.2-2.2-18.8-.3-2.9 1.6-6.8 5.5-9.3 9.4-1.5 2.3-1.6 3-.5 3.7 2.3 1.4 4.4 1 5.9-1.1s1.5-2.1 3.5.4c2.3 2.8 7.3 3.9 11.5 2.4 3.7-1.4 15.1-1.6 16.4-.3.6.6 2.2 1.1 3.6 1.2 1.4 0 1.9-.1 1.2-.4-.6-.3-1-.9-.6-1.4.3-.5-.2-.9-1.1-.9-2.1 0-1.4-2.4.8-2.8 1-.2 1.7.3 1.7 1.1 0 1 .7 1.3 2 1 2.4-.6 2.5-1.1.3-3.5-.9-1.1-1.1-1.8-.5-1.8.7 0 1.2.4 1.2 1 0 .5 1.1 1 2.4 1 1.9 0 2.6-.6 2.9-2.8.2-1.6.5-.8.6 2.1 0 2.7-.4 5.8-1.1 7-.7 1.2-1.3 3.6-1.3 5.3-.1 1.7-1.6 5.5-3.3 8.5-2.9 5.2-3.5 5.6-9.9 7.7-13.5 4.3-20.7 4.7-44.4 2.7-4.8-.4-10.7-5.5-14.1-12.3-2.6-5.2-3.2-7.7-3.6-15.6-.4-8.5-.3-9.5 1.6-11.4 2.6-2.6 13.8-6.1 22.9-7.2 6.5-.7 24.4-.4 30.9.6zm11.7 2.9c2.5 1 3.5 2 3.1 3-.8 2-1.4 1.9-5.4-1.5-3.8-3.3-3.1-3.8 2.3-1.5zm-22.9 6.6c-.3.5-1 .7-1.5.3-.5-.3-.7-1-.3-1.5.3-.5 1-.7 1.5-.3.5.3.7 1 .3 1.5zm21.2 1.7c-1.7 1.6-1.8 1.6-.5-.5.7-1.2 1.5-2 1.8-1.7.3.2-.3 1.2-1.3 2.2zm53.1-1.2c-.3.3-1.2.4-1.9.1-.8-.3-.5-.6.6-.6 1.1-.1 1.7.2 1.3.5zm-62.2 1.6c1.4.6 2.4 1.6 2.2 2.2-.7 2-2.5 1.6-4.1-.9-1.9-2.8-1.7-3 1.9-1.3zm142.5.3c-1.4 1.7-4 2-4 .6 0-.8 1.8-1.6 4.4-2 .5 0 .3.6-.4 1.4zm6-1.1c0 .3-1.1 1.7-2.5 3.2-1.4 1.5-2.5 2.3-2.5 1.9 0-.5 1-1.9 2.2-3.2 2.1-2.3 2.8-2.7 2.8-1.9zm-72.8 2.8c-.7.7-1.2.8-1.2.2 0-.6.3-1.4.7-1.7.3-.4.9-.5 1.2-.2.2.3-.1 1.1-.7 1.7zm54.8-1.3c0 1.8-2.9 3.3-5.1 2.6l-2.2-.7 2.4-1.4c2.8-1.5 4.9-1.8 4.9-.5zm-125.2 3.9c.2.7-.3 1.2-1.2 1.2-.9 0-1.6-.7-1.6-1.6 0-1.7 2.2-1.4 2.8.4zm58.8-.3c-.6 1.7 1.9 2.1 2.9.5.9-1.4 2.5-1.2 2.5.3 0 .9 1.2 1.1 4.1.9 3.2-.3 3.9-.7 3.4-2-.4-1.1.1-.9 1.8.6 3.3 3.1 8.1 4.4 15.7 4.3l6.5-.1-2.5 2c-1.4 1.1-3.2 1.9-4 1.9-.8-.1-2.4 0-3.5.1-1.7.2-1.6.3.5.9 3 .9 12-.5 14.8-2.2.6-.5 1.2-.4 1.2.1s1.2.8 2.7.6c2.7-.3 5.3 1 5.3 2.7 0 .5-.7.9-1.5.9s-1.5.4-1.5 1c0 .5-1.3 1-3 1-3.5 0-4.1 1.9-.7 2.1 4.5.3 7.2-.1 7.5-1.1.2-.5 1.3-1 2.5-1 2 0 2 .1.2 1.3-1.3 1-1.5 1.6-.6 2.1.6.4.9 1.2.6 1.7-.8 1.2.2 1.1 2.6-.2 1.7-.9 1.8-1.3.7-2.6-1-1.3-.8-1.3 1.5.1 2.9 1.9 3.3 1.6 1.7-1.4-.8-1.5-.7-1.7 1.2-1.2 1.8.4 2 .2 1.6-1.6-.4-1.2-.3-2 .2-1.7.4.3 1-.5 1.3-1.7.4-1.2.2-2.5-.2-2.8-.5-.3-.3-1.1.5-1.8 1.2-1.1 1.4-.8 1.4 1.5 0 6.6-3.8 14.9-6.4 14-.6-.2-1.8.5-2.6 1.6-.9 1-2.7 2-4.2 2-1.4.1-2.4.5-2.2.9.9 1.5-7.6 3-19.3 3.5-19.1.8-29.9-1.8-35.7-8.7-3-3.6-3.3-5-1.1-5 .9 0 1.5-.9 1.5-2.5 0-1.4-.4-2.5-.9-2.5s-1.7-1.4-2.5-3.2c-1.5-2.9-1.5-3.3 0-5 2.1-2.2 6.9-2.5 6-.3zm77.8 1.1c.8 2.1.8 2-3.1 2.9-4 .8-4.7-1.5-1-3.3 3-1.5 3.4-1.4 4.1.4zm-13.8 1.5c-.8 1.1-2.3 2.7-3.4 3.5-1.7 1.2-2.2 1.2-3.2-.1-.7-.8-2-1.5-2.9-1.5-.9 0-2.3-.5-3.1-1.1-1.1-.7-.2-1 3.5-.8 6.7.2 7.7.1 7-1.1-.3-.6.3-1 1.5-1 1.9 0 2 .2.6 2.1zM245 188c1.3.8 1.3 1-.2 1-.9 0-2-.5-2.3-1-.8-1.3.5-1.3 2.5 0zm24.8 1c-.7 1.1-1.6 2-2 2-.4 0-1.3 1.8-1.9 4-.7 2.1-1.7 3.8-2.3 3.7-.6-.1-1 .6-1 1.6.3 2.9-4.1 14-5.7 14.5-1.1.3-1.1.1.1-.8 1.2-1 1-1-1-.5-4.1 1.1-38.1 1.4-44.3.4-3.2-.5-7.2-1.5-8.8-2.2-2.6-1-.2-1.2 15.3-1.2 14.6 0 19.5-.4 24.3-1.8 13.3-3.9 16.6-6.6 18.5-15.3 1.4-6.1 1.1-5.9 5.9-6.2 3.9-.2 4.1-.1 2.9 1.8zm7.6 17.6c.4.9.4 1.9.1 2.2-.7.8-3.5-1.9-2.9-2.9.8-1.4 2.1-1.1 2.8.7zm-12.9.4c.3.5 1.5 1 2.6 1 3.7 0 5.7 1.7 5.2 4.4-.4 2.1-1 2.4-3.4 2.1-2.5-.3-2.9 0-2.9 2.1 0 1.4-.4 2.2-1 1.9-.5-.3-1-.2-1 .4 0 .5-.9.9-2 .8-2.4-.2-2.5-.7-.2-4.6 1.5-2.8 1.5-3.3.2-4.1-1.3-.8-1.2-1 .3-1 .9 0 1.7-.5 1.7-1.1 0-.5-.4-.7-1-.4-.5.3-1-.1-1-.9 0-1.8 1.6-2.1 2.5-.6zm44.6 19.4c-.6 1.4-1.7 2.6-2.6 2.6-2.2 0-1.8-2.8.5-3.5 1.1-.3 2-1.1 2-1.7 0-.6.2-.9.5-.6.3.3.1 1.7-.4 3.2zm-5.2 2.8c1 2.5-.1 4.4-1.8 3.4-1.4-.9-1.4-5.6-.1-5.6.6 0 1.5 1 1.9 2.2zM250 248c0 .4-.7 1-1.5 1.4-.8.3-1.5.4-1.5.2 0-.3-.3-1.1-.6-1.9-.4-1.2 0-1.4 1.5-1 1.2.3 2.1.9 2.1 1.3zm-3.7 6.5c-.3.9-.8 1.4-1 1.1-.3-.3-.2-.9.2-1.5.9-1.6 1.5-1.3.8.4zM265 258c-.9 5-1.5 5.7-3.5 4-2.1-1.7-1.9-3 .6-3 1.1 0 1.7-.4 1.4-1-.5-.9 1-4 2-4 .1 0-.1 1.8-.5 4zm30.8-1.8c1.7 1.7 1.5 2.9-.5 2.6-2.9-.5-4.6-3.8-2-3.8.7 0 1.8.5 2.5 1.2zm-28.4 2.3c.3.8.1 1.5-.4 1.5-.6 0-1-.7-1-1.5s.2-1.5.4-1.5.6.7 1 1.5zm-2.3 6.6c-.6 1.6-1 1.8-1 .7-.1-2.2 1.2-5.5 1.6-4.2.2.6-.1 2.2-.6 3.5zm2.6 4.1c-.3.7-.5.2-.5-1.2s.2-1.9.5-1.3c.2.7.2 1.9 0 2.5zm-17.7-.6c0 .8-.5 1.2-1 .9-.6-.4-.8-1.1-.5-1.6.9-1.4 1.5-1.1 1.5.7zm9.7.4c1.5 1.8 1.7 5 .4 5-.5 0-1.1-1.2-1.3-2.7-.3-2.6-.4-2.6-2-.9-1 1-1.8 1.3-1.8.8 0-.6-.3-1.7-.6-2.6-.8-2 3.6-1.8 5.3.4zm-1.7 6c0 .5-.9 1-2 1s-2-.5-2-1c0-.6.9-1 2-1s2 .4 2 1zm-34.4 39.5c-.1 2.1-.6 3.5-1.4 3.5-.8 0-1-.8-.6-2.8 1.3-5.2 2.1-5.5 2-.7zm-7.8 5c-.3.3-.9-.2-1.2-1.2-.6-1.4-.5-1.5.5-.6.7.7 1 1.5.7 1.8zm4.2.1c0 .8-.5 1.2-1 .9-.6-.4-.8-1.1-.5-1.6.9-1.4 1.5-1.1 1.5.7zM94 323c0 .5-.4 1-.9 1-.6 0-1.3-.5-1.6-1-.3-.6.1-1 .9-1 .9 0 1.6.4 1.6 1zm9 0c0 .5-.5 1-1.1 1-.5 0-.7-.5-.4-1 .3-.6.8-1 1.1-1 .2 0 .4.4.4 1zm105 15c0 .5-.4 1-1 1-.5 0-1-.5-1-1 0-.6.5-1 1-1 .6 0 1 .4 1 1zm-13 1c1.2.8 1.1 1-.7 1-1.3 0-2.3-.5-2.3-1 0-1.3 1.1-1.3 3 0z"/><path d="M207.2 16.6c1 1 2 1.5 2.4 1.2.3-.4-.5-1.2-1.8-1.8-2.2-1.2-2.2-1.2-.6.6zM269 91.4c0 3.1.6 3.4 1.3.6.3-1.1.1-2.3-.4-2.6-.5-.3-.9.6-.9 2zM61.6 92.6c-.9.8-1.6 2-1.6 2.6 0 .6.1.9.3.7.1-.2 1.1-1.4 2.1-2.7 2.2-2.5 1.6-3-.8-.6zM272.1 101.9c-.8.5-.9 1.1-.3 1.5.5.3 1.2-.1 1.6-.9.6-1.7.6-1.8-1.3-.6zM95.5 142c.3.5 1.5 1 2.6 1 1 0 1.9-.5 1.9-1 0-.6-1.2-1-2.6-1-1.4 0-2.3.4-1.9 1zM92.6 180.5c-1.4 2.1-1.4 2.5-.2 2.5.8 0 1.8-.9 2.1-2.1 1-3.1 0-3.3-1.9-.4zM72 183.3c0 1.4.5 2.9 1 3.2.7.4.8-.3.4-2.2-.9-3.8-1.4-4.2-1.4-1zM78.6 184.5c.9 1.4 1.9 2.4 2.1 2.1.6-.6-2-4.6-3-4.6-.4 0 0 1.1.9 2.5zM73.8 191.7c.7.3 1.6.2 1.9-.1.4-.3-.2-.6-1.3-.5-1.1 0-1.4.3-.6.6zM86.3 193.7c.3 1.2-.2 3.1-.9 4.2-1.7 2.4-.4 3.6 3.2 2.7 2.4-.6 3.4-3.6 1.2-3.6-.9 0-.9-.3 0-1.2 1.7-1.7 1.5-2.8-.4-2.1-.9.3-2 0-2.6-.8-.7-1.1-.9-.9-.5.8zM193 189.1c0 .5.5.7 1 .4.6-.3 1 .3 1 1.5s.5 1.8 1 1.5c.6-.3 1 .1 1 .9 0 .9.5 1.6 1 1.6 1.8 0 1.1-2.9-1.2-5-2.4-2.2-3.8-2.6-3.8-.9zM237.5 202c.3.5.8 1 1.1 1 .2 0 .4-.5.4-1 0-.6-.5-1-1.1-1-.5 0-.7.4-.4 1zM157.8 178.7c-1 .2-1.8 1.1-1.8 1.9 0 1.2.4 1.2 2.5-.2 3.6-2.3 3.4-2.8-.7-1.7zM45.3 184.2c.3.7 1.1 3 1.8 5 1.4 4.4 3.6 5 3.7 1 0-3-1.1-4.8-4.1-6.4-1.5-.8-1.8-.7-1.4.4zM55.5 195c.3.5.8 1 1.1 1 .2 0 .4-.5.4-1 0-.6-.5-1-1.1-1-.5 0-.7.4-.4 1zM54.4 198.3c-.7.8-.7 2.4-.1 4.7 1 3.8 1.4 3.4 1.9-2.3.4-3.9 0-4.4-1.8-2.4zM179.7 208.3c-.4 1.6-.5 3.7-.2 4.8.4 1.3.2 1.9-.6 1.7-.8-.2-1.6 1.4-2 4.6-.4 2.7-1.3 5.4-1.8 5.9-.6.6-1.1 2-1.1 3.2 0 3.9-5.9 9.4-9.3 8.7-.4-.1-2 .4-3.5 1.2-1.5.7-3.5 1.2-4.4 1.1-2.2-.4-1.3 2 2.1 6 6.3 7.1 6.2 7 5.1 10.1-.9 2.3-1.3 2.5-2 1.4-.7-1-1-1.1-1-.2 0 .7 1.3 2.6 3 4.3 2.2 2.3 3.3 2.9 4.2 2.1.7-.5 3.1-1 5.3-.9 6 .1 8-.9 11.1-5.6 1.6-2.3 3-4.4 3.2-4.7.2-.2.7.2 1.2 1 .8 1.2 1 1 1-.8 0-1.2.5-2.2 1.1-2.2.6 0 .8.9.4 2-.5 1.4-.2 2 .9 2 1 0 1.6-.9 1.6-2.1 0-1.6.5-2 2-1.6 1.1.3 2 .1 2-.5 0-.5.4-.7.9-.4 2.6 1.7 1.1-16.6-2.2-26.5-1.3-4-1.5-4.1-2.6-2.1-.8 1.4-.8 2.3-.1 2.7 1.3.8-2.6 4.5-4.7 4.5-.7 0-1.3-.9-1.3-1.9 0-1.4-.5-1.8-2-1.4-2.2.6-2.3-.8-.1-6 1.3-3.2 3.1-3.1 4.7.2 1.1 2.2 1.1 2.2 1.7-.6.6-2.9-2.7-9.8-4.3-8.8-.4.3-1.1-.2-1.4-1.1-.4-.9-.9-1.4-1.3-1.1-.3.4-1.3.1-2.1-.6-1.3-1-1.5-.9-.9.5.3 1 .2 1.8-.3 1.8s-1-.8-1.2-1.8c-.3-1.2-.6-.9-1.1 1.1zM110.8 217.7c-11.9.3-15.6 1.3-11.2 3 2.3.9 27.6-1.5 28.8-2.7.7-.7 0-.9-1.9-.8-1.7.1-8.7.4-15.7.5zM142.3 234.7c-2.2.8-1.5 5.8 1.3 8.4 2 1.8 3.6 2.4 7 2.3 2.4 0 4.7-.4 5-.7.4-.3-1.2-2.9-3.6-5.7-4-4.8-6.2-5.8-9.7-4.3z"/><path d="M196.1 253.5c-.2.5-.2 3-.1 5.5.1 4-.2 4.7-2.8 6.2-1.7 1-2.9 2.6-2.8 3.5 0 1-.5 1.7-1.1 1.5-.7-.1-1.3.2-1.3.7 0 2.2-6.1 7.2-9.3 7.5-.4.1-1.2.8-1.7 1.6-.7 1.2-5.1 1.5-24.9 1.8-23.4.3-24 .3-25.3-1.7-.7-1.2-2-2.1-2.9-2.1-.9 0-1.9-.7-2.3-1.5-.6-1.6-6.2-2.1-8.3-.7-.6.4-1.5 2-1.9 3.6-.4 1.9-.3 2.7.3 2.3.6-.4 1.4 0 1.7.8.3.9 0 1.8-.7 2.1-1.5.5-1.6 3.8-.2 4.2.6.1 1.8-.5 2.7-1.3 1.3-1 2.5-1.2 4.1-.6 1.5.6 2.9.5 4.1-.5 1.1-.7 2.2-1.1 2.6-.9.4.3 5.7 1.2 11.6 2 6 .8 14 1.9 17.9 2.5 3.8.6 10.8 1.2 15.5 1.4 4.7.2 8.6.5 8.8.6.1.2.5.3 1 .5.4.1 1.4.5 2.2.8 2.5 1.1 8.4 1.4 10.2.5 1-.5 1.9-.4 2.3.2.3.5-.6 1.2-2 1.6-1.9.5-2.5 1.2-2.2 2.3.3 1.3-.4 1.8-3.1 2-2 .1-4.2.7-4.9 1.3-1 .8-1.3.6-1.3-.8 0-1.6-.3-1.6-2 .6-1.1 1.4-2 2-2 1.5 0-.6-.5-.3-1 .5-.7 1.1-1.2 1.2-2 .4-.9-.9-2.2-.8-5.2 0-5.1 1.6-6.3 3.5-4.3 7.2 1 1.9 1.5 2.3 1.5 1.2 0-2.5 3.8-3.2 11.8-2.2 3.7.4 7 .7 7.5.6.4-.1.7.2.7.6 0 .5.9 1.9 2 3.2l2 2.3 3.1-3.4c1.9-2 2.9-2.7 2.5-1.6-.3 1.1-.9 3-1.2 4.4l-.7 2.4 2.5-2.3c1.3-1.3 2.7-3.1 3.1-4.1.4-1 1.1-1.6 1.6-1.3.5.4.3 1.9-.5 3.6-1.4 2.6-1.3 3.2.3 5.6 1 1.6 1.9 2.2 2.1 1.4.2-.6-.1-1.7-.7-2.3-.6-.6-1.1-1.5-1.1-1.9 0-1.2 3.4-1 4.7.3.7.7 1.2-.3 1.6-3.3.6-4.4-.7-7.5-1.9-4.5-.3.9-1 1.7-1.5 1.7s0-1.8 1.1-4c1.3-2.5 2.5-3.8 3.2-3.4.8.5.9.2.5-.9s-.1-1.7.8-1.7c.8 0 1.9-.9 2.5-2 1.8-3.4 5.7-7 7.6-7 1.7 0 1.7 0-.1-1.3-2.3-1.7-.8-2.9 4-3 3.1-.1 3.2-.3 3-3.4-.2-1.8.1-3.3.6-3.3s.9.6.9 1.2c0 .9.4.8 1-.2 1.4-2.2 1.2-2.8-1-3.5-1.1-.3-2-1.3-2-2.1s.5-1.2 1-.9c.6.3 1 .2 1-.4 0-.6-1.6-1.3-3.5-1.7-1.9-.3-3.5-1.1-3.5-1.6 0-.6-.9-.8-2.1-.5-1.5.4-1.9.2-1.5-.9.3-.8-.1-1.4-1-1.4-.8 0-1.4-.6-1.3-1.3.1-.6-.1-2-.6-3-.6-1.5-1-1.6-1.6-.5-.7 1-.9.8-.9-.6 0-1.5-.3-1.6-1.4-.7-1.1 1-1.6.8-2.1-.9-.9-2.7-3.9-2.2-4.3.8-.4 2.7-1 2.8-2.8.4-1.3-1.6-1.3-1.6-1.4 0 0 1-.7 1.8-1.5 1.8-1.8 0-1.9 1.2-.3 2.8 1.3 1.3.4 1.8-4.6 2.6-2.7.5-2.7.4-1.2-1.3.9-1 1.6-2 1.6-2.4 0-.3 1.1-1.8 2.6-3.2 1.4-1.4 2.2-3 1.8-3.7-.5-.8-1-.5-1.5.8s-.8.4-1.1-3.1c-.2-2.8-.6-4.6-.7-4zm11.6 10.7c-.3.8-.6.5-.6-.6-.1-1.1.2-1.7.5-1.3.3.3.4 1.2.1 1.9zm3.1 25.2c-.7.8-1.5 1.2-1.7 1.1-.5-.6 1-2.5 2-2.5.5 0 .4.6-.3 1.4zm-3.2 2.3c-.3.3-1.7.7-3.2.9-2.8.3-2.6-.3.8-2.1 2.1-1 3.8-.2 2.4 1.2zm-15.3 20.2c-.9 1.1-2 1.8-2.5 1.5-1.4-.9-.9-2.2 1-2.7 3.1-.8 3.2-.7 1.5 1.2zm14.1 1.7c.3.8.2 1.2-.4.9-.6-.3-1-1-1-1.6 0-1.4.7-1.1 1.4.7zM112.4 256.7c-1.6 1.5-3 2.6-3.1 2.5-1-.7-1.9.1-2 2-.4 4.7 4.2 4.4 5.2-.3.4-1.6 1.2-2.9 2-2.9.7 0 1.5-.9 1.8-2 .7-2.7-.5-2.5-3.9.7zM240.5 263c.3.5.8 1 1.1 1 .2 0 .4-.5.4-1 0-.6-.5-1-1.1-1-.5 0-.7.4-.4 1z"/><path d="M219.9 266.6c1.1 2.5 1.7 3 2.3 2 1.1-1.9.1-4.3-2.1-4.9-1.6-.4-1.6-.2-.2 2.9zM105.4 266.9c.4.5.1 1.1-.6 1.3-.8.3-.6.6.4 1 1.1.5 1.8 0 2.1-1.3.3-1.2 0-1.9-1-1.9-.8 0-1.2.4-.9.9zM230.1 269.6c0 1.1.3 1.4.6.6.3-.7.2-1.6-.1-1.9-.3-.4-.6.2-.5 1.3zM243.3 280.4c.4.9.1 1.6-.5 1.6-.9 0-.8.4.1 1.2 1 1.1 1.5.9 2.6-.5 1-1.4 1.4-1.5 1.9-.5.3.7.5.4.3-.7-.1-1.3-1.1-2.1-2.6-2.3-1.8-.3-2.2 0-1.8 1.2zM157 303.5c-.7.8-2.1 1.5-3.1 1.5-1.1 0-1.9.4-1.9 1 0 .5 1.1 1 2.4 1 1.4 0 2.8-.5 3.1-1 .3-.6 1.5-1 2.6-1 2.3 0 2.5-1.5.3-2.4-2.1-.8-2-.8-3.4.9zM213.1 308.6c-1.3 1.2-2.5 3.4-2.7 4.8-.2 2.4-.2 2.4 1.7.5 1-1 1.9-2.3 1.9-2.8s.5-1.1 1.1-1.3c.6-.2 1-1.1.8-1.9-.3-1.3-.8-1.2-2.8.7zM85 310c0 .4.7 1.3 1.6 2 1.2 1.1 1.8 1 3.2-.3.9-1 1.2-1.7.7-1.8-.6 0-2-.2-3.2-.3-1.3-.2-2.3.1-2.3.4zM94 312c0 .5.7.7 1.5.4.8-.4 1.5-.8 1.5-1 0-.2-.7-.4-1.5-.4s-1.5.4-1.5 1zM179.7 314.4c-1 2.4-1 2.3 2.1 2.8 2.2.3 2.7 0 2.8-1.9.2-1.9-.1-2.1-1.6-1.3-1.3.7-2 .6-2.2-.2-.3-.7-.7-.5-1.1.6zM163.3 315.5c-1.7 1.3-1.6 1.4 1.5 1.5 3.3 0 4.3-1.3 1.8-2.3-.8-.3-2.2.1-3.3.8zM187 317.1c0 .5.5.7 1 .4.6-.3 1-.8 1-1.1 0-.2-.4-.4-1-.4-.5 0-1 .5-1 1.1zM210.2 323.2c.2 1.9.8 3.5 1.4 3.5.9 0 .9-.9.1-3.1-1.4-4.4-1.8-4.5-1.5-.4z"/></svg>